<?xml version="1.0" encoding="utf-8"?>
<!-- Generator: Adobe Illustrator 18.0.0, SVG Export Plug-In . SVG Version: 6.00 Build 0)  -->
<!DOCTYPE svg PUBLIC "-//W3C//DTD SVG 1.1//EN" "http://www.w3.org/Graphics/SVG/1.1/DTD/svg11.dtd">
<svg version="1.1" id="Layer_1" xmlns="http://www.w3.org/2000/svg" xmlns:xlink="http://www.w3.org/1999/xlink" x="0px" y="0px"
	 width="512px" height="160px" viewBox="0 0 512 160" enable-background="new 0 0 512 160" xml:space="preserve">
<g transform="matrix( 1, 0, 0, 1, 0,0) ">
	<g>
		<g id="Layer0_0_FILL">
			<path fill="#67AB5D" fill-opacity="0.5451" d="M111.15,47v-0.05l-4.5-0.5c-11.5-1.267-21.55-2.183-30.15-2.75h-0.25L76.4,44
				l-0.25-0.15l-3.6-0.15l0.1-0.25l-2.5-0.2h-0.1v0.25H70l-3.95-0.25l0.2-0.2H66l-5.45-0.35l-0.1-0.1l-0.05-0.05l0.15,3.55
				c0.133,0.933,0.3,1.4,0.5,1.4c0.2,0,0.583-0.083,1.15-0.25h1.2l0.35,0.85v0.15c0,0.433-0.667,2.433-2,6l-0.2,0.5h0.2l1.75,0.35
				c-0.367,1.833-1.45,4.2-3.25,7.1l-1.75,3c-0.067,0-0.1,0.083-0.1,0.25c-0.1,0-0.15,0.05-0.15,0.15L58,66l-0.1,0.2v0.15L58,66.5
				l0.2,1.1l0.05,1.6l1.5-1.35l-0.2,0.4l-0.3,2.35c-0.033,0.5-0.183,0.917-0.45,1.25c-0.067,0.067-0.2,0.1-0.4,0.1v0.15h-0.15V77
				l-0.05-0.05v0.15L58,76.95l-0.6-0.6l-1-0.5h-0.15l0.15-3.9l-0.2-0.35l-0.45-1.15l-0.5-2l-0.05-1.1l0.7,0.5l0.15,0.4v0.2l0.15,0.3
				V68.2c-0.333-2.167-0.567-3.5-0.7-4l-1-1.4l-0.1-0.35v0.15c-0.667-0.8-1.45-1.55-2.35-2.25l-1.9-2.85
				c-0.833-1.7-1.217-2.767-1.15-3.2v-0.25c0.1-0.267,0.35-0.5,0.75-0.7l0.2-0.1h1V53.2l-1.15-2.95l-0.15-1.5l-0.1-0.2L49.5,48.5
				l0.95-1.7l0.2-0.05c0.1-0.1,0.283-0.1,0.55,0c0.333,0,0.567-0.05,0.7-0.15c0.067,0,0.1-0.05,0.1-0.15l0.55-1.1
				c0.333-0.567,0.65-1.333,0.95-2.3c0.067-0.567,0.133-0.933,0.2-1.1l0.05-0.1l-12.5-0.3v0.15h-5.7l0.2-0.25l-4.15-0.4l-29.1,0.2
				l-2.4,0.5H0l-0.1,26.7l0.1-0.1l0.1-0.1c4.433,1.767,8.567,3.6,12.4,5.5l0.7,0.35c0.367,0.133,0.717,0.283,1.05,0.45
				c2.433,0.917,4.867,1.833,7.3,2.75c5.5,1.9,10.833,3.367,16,4.4c5.933,1.567,14.217,2.9,24.85,4
				c0.967,0.133,11.683,0.983,32.15,2.55h27.1c9.567-0.4,20.067-1.533,31.5-3.4l0.15-0.15h0.1c1.733-1.3,2.633-2.467,2.7-3.5v-0.1
				c0-1.167-1.367-2.867-4.1-5.1c-2.1-1.433-3.35-3.183-3.75-5.25l-0.25-1.9v-0.1c0-1.567,0.7-3,2.1-4.3
				c0.3-0.333,0.8-0.733,1.5-1.2c2.333-1.5,3.5-3.133,3.5-4.9c0-0.033,0-0.067,0-0.1c0-0.6-0.083-1.1-0.25-1.5l-0.2-0.5
				c-0.333-0.667-0.8-1.283-1.4-1.85c-0.267-0.233-0.567-0.467-0.9-0.7l-2.5-1.65l-0.1-0.05L111.15,47 M503.75,93.2h8.35V61.85
				c-5.533,0.333-9.65,0.55-12.35,0.65H488.1l-2.85,0.45l-36.15,0.3l-3.5,0.35h-16.35l-25.15,0.85h-38.15L336,63.6l-0.65-0.1h-1.5
				v-0.05l-50.75-0.5c-25.967-1.167-45.55-2.233-58.75-3.2h-0.1l-20.35-1.5h-0.15l-8.4-0.75c-2.967-0.267-5.4-0.533-7.3-0.8
				l-16.8-1.65c2.1,2,3.15,3.933,3.15,5.8c0,1.9-0.833,3.517-2.5,4.85c-0.4,0.4-0.9,0.783-1.5,1.15l-1.5,0.9
				c-1.333,1.033-2,1.817-2,2.35c0,1.233,1.883,3.867,5.65,7.9l2.25,2.4l13.8-2.8c4.867-0.967,10.033-1.933,15.5-2.9
				c0.45-0.083,0.9-0.167,1.35-0.25l1.35-0.25h0.2h14.1c12.867,1.067,28.45,3.317,46.75,6.75c14.3,2.667,30.217,5.8,47.75,9.4
				l13.65,2.85c12.833,2.667,22.783,4.55,29.85,5.65c2.167,0.367,3.467,0.617,3.9,0.75c3.533,0.6,7.1,1.1,10.7,1.5
				c4.367,0.533,8.967,0.917,13.8,1.15h0.25l0.1-0.8c0,0.267,0.033,0.533,0.1,0.8h8.8v-1c-0.133,0-0.217-0.05-0.25-0.15
				c-0.233-0.1-0.367-0.35-0.4-0.75l-0.25-0.65l-0.4,0.4c-0.267,0.333-0.55,0.5-0.85,0.5l-0.15-0.15c-0.133,0-0.25-0.083-0.35-0.25
				l-0.1-0.1l-0.5,0.25c-0.133,0.267-0.383,0.4-0.75,0.4c-0.167,0-0.333-0.05-0.5-0.15c-0.367-0.233-0.7-0.95-1-2.15
				c-0.467-1.3-0.6-2.417-0.4-3.35l-0.1-0.15l-0.4-0.6l-0.1-0.35c-0.167-0.267-0.25-0.65-0.25-1.15c0-0.367,0.083-0.833,0.25-1.4
				l0.1-0.35l-0.25-1.85c-0.1-0.733-0.15-1.5-0.15-2.3c0-1.6,0.183-2.633,0.55-3.1c0.267-0.467,0.583-0.75,0.95-0.85v-0.3
				c0-0.7,0.167-1.433,0.5-2.2c0.4-1.067,0.833-1.833,1.3-2.3l0.6-0.75c0.433-0.167,0.733-0.25,0.9-0.25l0.35,0.05l1.65-1.75
				c0.333-0.367,0.583-0.55,0.75-0.55c0.533,0,0.9,0.217,1.1,0.65l0.9,2.25l0.45,1.6l0.05,1c0.1,0,0.267-0.117,0.5-0.35l0.25-0.35
				c0.167-0.4,0.367-0.667,0.6-0.8l0.35-0.1c1.2,0,1.8,1.383,1.8,4.15v1.2l0.85,0.9c0.333,0.7,0.5,1.867,0.5,3.5v0.5
				c0,1.933-0.167,3.4-0.5,4.4l0.15,0.45l0.1-0.75c0.133-0.5,0.267-1.283,0.4-2.35c0,0.967-0.133,1.883-0.4,2.75l0.1,0.5l-0.45,0.85
				V95c-0.1,0.267-0.283,0.583-0.55,0.95l0.05,0.55c0,0.867-0.183,1.567-0.55,2.1c-0.1,0.467-0.333,0.883-0.7,1.25
				c-0.367,0.567-0.833,0.85-1.4,0.85h-0.25l-0.35-0.1c-0.233-0.1-0.4-0.3-0.5-0.6l-0.25,0.6l-0.15,0.1
				c-0.2,0.367-0.45,0.55-0.75,0.55l-0.15-0.05h-0.1l-0.1-0.1l-0.05,1.35h17.5l45.4-4.35l0.5-0.15
				c16.267-2.2,30.183-3.783,41.75-4.75H503.75 M224.1,61.25l0.15-0.05l3.35,7l1,1.25h-0.05l0.05,0.15
				c-0.267-0.167-0.55-0.25-0.85-0.25c-2.633,0-4.583,0.133-5.85,0.4l-1.55,0.45h-0.25l0.05-0.1h-0.05
				c0.6-1.667,1.083-2.917,1.45-3.75l0.3-0.65C222.517,63.967,223.267,62.483,224.1,61.25 M214.05,59.7l0.85,1.55
				c0.667,1.367,1.167,2.683,1.5,3.95l1.7,5.75v0.25l-2.55,0.4l-6.45-0.4l0.2-0.25h-0.2c0.3-0.233,1.05-1.933,2.25-5.1
				c0.033-0.233,0.45-1.367,1.25-3.4l1.15-2.45C213.95,60.067,214.05,59.967,214.05,59.7z"/>
			<path fill="#0A816D" fill-opacity="0.5451" d="M512.1,93.2h-8.35c-11.633,0.967-25.55,2.55-41.75,4.75l-0.65,0.15l-45.4,4.35
				h-17.5h-0.35v2.25l-0.1,0.5l-0.15,6.65V112l-0.25-0.5l-0.6-0.3h-0.05v-8.95h-0.2h-8.8c-0.067-0.267-0.1-0.533-0.1-0.8l-0.1,0.8
				h-0.25c-4.833-0.233-9.433-0.617-13.8-1.15c-3.6-0.4-7.167-0.9-10.7-1.5c-0.433-0.133-1.733-0.383-3.9-0.75
				c-7.067-1.1-17.017-2.983-29.85-5.65l-13.65-2.85c-17.533-3.6-33.45-6.733-47.75-9.4c-18.3-3.433-33.883-5.683-46.75-6.75H207
				l-1.55,0.25c-0.45,0.083-0.9,0.167-1.35,0.25c-5.467,0.967-10.633,1.933-15.5,2.9l-13.8,2.8l-21.15,4.3h-0.25h-0.1l-0.15,0.15
				c-11.433,1.867-21.933,3-31.5,3.4h-27.1c-20.467-1.567-31.183-2.417-32.15-2.55c-10.633-1.1-18.917-2.433-24.85-4
				c-5.167-1.033-10.5-2.5-16-4.4c-2.433-0.917-4.867-1.833-7.3-2.75c-0.333-0.167-0.683-0.317-1.05-0.45l-0.7-0.35
				c-3.833-1.9-7.967-3.733-12.4-5.5L0,68.35V160h512L512.1,93.2z"/>
			<path fill="#65A95B" fill-opacity="0.5451" d="M469.1,22.55l-0.6,1.75c0-0.167-0.05-0.25-0.15-0.25c-0.567,0-1.1,0.5-1.6,1.5
				l-0.15,0.6c-0.3,0.433-0.5,0.967-0.6,1.6l-0.4,2.15l0.15,2.85l-0.05-0.05c-0.133-0.133-0.25-0.167-0.35-0.1
				c-0.167,0-0.283,0.167-0.35,0.5l-0.15,1.4c0,0.767,0.083,1.267,0.25,1.5l0.75,1.5l0.15,0.1l0.1,0.15
				c0.2,0.167,0.417,0.2,0.65,0.1h0.45l0.15-0.05l0.25,0.15c0.5,0.067,1-0.483,1.5-1.65l0.25-0.35l0.15,1.65
				c0.3,0.367,0.583,0.65,0.85,0.85V38l0.25,0.1l0.15,0.15l0.1-1.8l0.1-0.15h0.9V38h0.1c0.333-0.167,0.6-0.25,0.8-0.25h0.35V37.6
				h-0.35l0.1-0.1c0.133-0.1,0.267-0.333,0.4-0.7h0.1l0.5,0.95c0.2,0.067,0.367,0.083,0.5,0.05c0.3,0,0.517-0.1,0.65-0.3h0.95
				l0.5,1.55l0.05-0.5v0.15l-0.05,0.55c-0.333,1.1-0.817,2.017-1.45,2.75c-0.7,0.867-1.617,1.533-2.75,2L472,44.05v0.05l0.35-0.1
				c1.167-0.467,2.083-1.133,2.75-2c0.6-0.767,1.067-1.683,1.4-2.75l0.25-1.25l-0.15-2.5c-0.1-0.567-0.267-1.033-0.5-1.4L476,34
				v-0.05c-0.1-0.233-0.267-0.383-0.5-0.45l-0.25,0.05l-0.15,0.05v-0.05L475,33.6l0.45-3.6l-0.1-1.5v-0.05V28.4h0.15l-0.05-0.4h-0.1
				v-0.25l-0.1-0.1c-0.133-0.933-0.383-1.4-0.75-1.4c-0.3,0-0.633,0.25-1,0.75l-0.5,0.9v-0.15c-0.1-1.933-0.233-3.1-0.4-3.5
				c-0.233-1.9-0.9-2.85-2-2.85C470.067,21.4,469.567,21.783,469.1,22.55z"/>
			<path fill="#C6E7B2" fill-opacity="0.5451" d="M512.05,23.4l-0.2-20.65C495.45,0.917,477.917,0,459.25,0
				c-34.2,0-74.917,3.05-122.15,9.15v0.1l-9,1.2l-0.35,0.15l-10.05,1.15l0.05,0.15L309,13.15l0.1-0.05h-0.25L300,14.4
				c0.433,0.267,0.717,0.5,0.85,0.7l1,1.4l0.15,0.55v0.2l0.1,0.65V18c0,0.433-0.217,1.15-0.65,2.15l-0.1,0.25
				c0.2,0.033,0.333,0.167,0.4,0.4c0.333,0.567,0.5,1.4,0.5,2.5l-0.15,3.5l-0.25,0.45l-0.75,0.5L300,31l-0.5,0.75
				c-0.833,1.133-1.583,1.7-2.25,1.7c-0.7,0-1.367-0.317-2-0.95l-0.55-0.95c-0.067,0.167-0.217,0.333-0.45,0.5l-0.05,0.2l-0.1,0.25
				l-0.9,0.5v10.25h0.55c1.267,0.233,2.133,0.967,2.6,2.2c0.1,0.5,0.15,0.767,0.15,0.8h95.45c8.267-2.233,16.567-4.367,24.9-6.4
				c10.067-2.333,18.233-4.117,24.5-5.35c6-1.233,14.083-2.767,24.25-4.6l0.4-2.15c0.1-0.633,0.3-1.167,0.6-1.6l0.15-0.6
				c0.5-1,1.033-1.5,1.6-1.5c0.1,0,0.15,0.083,0.15,0.25l0.6-1.75c0.467-0.767,0.967-1.15,1.5-1.15c1.1,0,1.767,0.95,2,2.85
				c0.167,0.4,0.3,1.567,0.4,3.5v0.15l0.5-0.9c0.367-0.5,0.7-0.75,1-0.75c0.367,0,0.617,0.467,0.75,1.4l0.1,0.1V28h0.1l0.05,0.4
				L512.05,23.4 M361,24h0.1v-0.25c0.467,1,0.967,2.75,1.5,5.25l1.35,4.85v0.1l-0.1-0.15v0.15c-0.267-0.333-0.633-0.567-1.1-0.7
				l-1-0.25h-0.4v3.45h-0.1v0.05h-1.15v-3.4l-2.1,0.2l-0.4-0.2v-0.05V33l0.35-0.5l0.05-0.05V32.3c0.367-0.8,0.733-1.733,1.1-2.8
				L361,24 M355.1,28.75v0.15c0,0.167,0.033,0.3,0.1,0.4c0.133,0.633,0.467,1.8,1,3.5l1.4,4.2v1c0,0.067-0.083,0.1-0.25,0.1
				l-1.25-0.3l-0.5-0.2v-0.35h-0.4v4.6h-1.45V37.3c-0.1,0-0.517,0.167-1.25,0.5l-0.8,0.75h-0.2l0.1-0.05h-0.1
				c0.433-0.433,1.05-2,1.85-4.7l1.4-5.05L355,28.5C355,28.6,355.033,28.683,355.1,28.75 M284.1,15.5l-0.4-0.1
				c-0.3,0-0.583,0.633-0.85,1.9c-11.167,1.833-18.917,3.15-23.25,3.95h-0.1l-0.25,0.05c-18.3,3.367-34.017,6.6-47.15,9.7h-0.3
				c-6.2,1.3-12.35,2.733-18.45,4.3l-0.25,0.05l0.15,0.15l-13,3.2h-0.35l0.15-0.1l-1.95,0.5l0.4,0.4l-8.65,2.5h-0.1
				c-2.433,0.5-3.883,0.75-4.35,0.75h-0.05L153.4,46.1h134.3c0.367-0.567,1-1.083,1.9-1.55c0.267-0.067,0.35-0.233,0.25-0.5
				l1.65-0.55V33.1l-0.15-0.1v-0.2l-0.1-0.2l-0.05,0.15c-0.367,0.567-0.767,0.85-1.2,0.85c-0.733,0-1.15-0.533-1.25-1.6v-0.1
				l0.1-0.35v-0.3c-1,1.5-1.867,2.25-2.6,2.25c-0.667,0-1.183-0.3-1.55-0.9c-0.167-0.167-0.283-0.533-0.35-1.1l-0.1-0.5v-0.1
				c-0.1-0.133-0.1-0.467,0-1v-0.15l0.1,0.05l0.1-0.9c-0.067,0.133-0.183,0.217-0.35,0.25c-0.233,0.067-0.433,0.017-0.6-0.15
				c-0.233-0.467-0.417-0.967-0.55-1.5c-0.3-0.6-0.45-1.467-0.45-2.6v-1l0.25-1.4c0.167-0.5,0.333-0.867,0.5-1.1l-0.5-0.5
				c-0.167-0.333-0.25-0.783-0.25-1.35l0.5-2.05v-0.1c0.267-1.3,0.55-1.95,0.85-1.95L284.1,15.5 M295.85,10.9l0.15-0.5l0.45-0.45
				l-0.2-0.05c0,0.067-0.133,0.233-0.4,0.5l-0.1,0.25L295.85,10.9z"/>
			<path fill="#D6987B" d="M353.75,37.3v4.55h1.45v-4.6v-0.5h-1.45V37.3 M360.25,33.1h-0.15v3.4h1.15v-0.05h0.1V33v-0.4h-1.1V33.1z"
				/>
			<path fill="#176739" fill-opacity="0.5451" d="M355.1,28.9v-0.15c-0.067-0.067-0.1-0.15-0.1-0.25l-0.25,0.25l-1.4,5.05
				c-0.8,2.7-1.417,4.267-1.85,4.7h0.1l-0.1,0.05h0.2l0.8-0.75c0.733-0.333,1.15-0.5,1.25-0.5v-0.55h1.45v0.5h0.4v0.35l0.5,0.2
				l1.25,0.3c0.167,0,0.25-0.033,0.25-0.1v-1l-1.4-4.2c-0.533-1.7-0.867-2.867-1-3.5C355.133,29.2,355.1,29.067,355.1,28.9
				 M361.1,24H361v0.05l-1.9,5.5c-0.467,1.333-0.833,2.25-1.1,2.75v0.15l-0.05,0.05l-0.2,0.35l-0.15,0.2v0.05l0.4,0.2l2.1-0.2h0.15
				v-0.5h1.1V33h0.4l1,0.25c0.4,0.1,0.767,0.283,1.1,0.55l0.1,0.05L362.6,29c-0.533-2.5-1.033-4.25-1.5-5.25V24z"/>
			<path fill="#72BD66" fill-opacity="0.5451" d="M499.75,62.5c2.7-0.1,6.817-0.317,12.35-0.65l-0.25-38.4l-36.35,5h-0.15v0.05
				l0.1,1.5L475,33.6l0.1-0.05h0.15l0.25-0.05c0.233,0.067,0.4,0.217,0.5,0.45V34l0.1,0.1c0.233,0.367,0.4,0.833,0.5,1.4l0.15,2.5
				l-0.25,1.25c-0.333,1.067-0.8,1.983-1.4,2.75c-0.667,0.867-1.583,1.533-2.75,2L472,44.1l-0.15,0.1l0.1,8.15l-0.45,0.15h-0.05
				l-0.6-0.15l-0.25-0.1c0.167-0.267,0.167-1.483,0-3.65v-3.85h-0.1h-0.05c-0.867-0.367-1.9-1.833-3.1-4.4l-1.25-2.6L466,37.6
				l-0.15-0.1L465.1,36c-0.167-0.233-0.25-0.733-0.25-1.5l0.15-1.4c0.067-0.333,0.183-0.5,0.35-0.5c0.1-0.067,0.217-0.033,0.35,0.1
				l0.05,0.05l-0.15-2.85c-10.167,1.833-18.25,3.367-24.25,4.6c-6.267,1.233-14.433,3.017-24.5,5.35
				c-8.333,2.033-16.633,4.167-24.9,6.4H392l-16,4.45c-12.867,3.767-26.883,7.783-42.05,12.05h-0.1v0.7v0.05h1.5l0.65,0.1
				l29.95,0.85h38.15l25.15-0.85h16.35l3.5-0.35l36.15-0.3l2.85-0.45H499.75 M462.2,47.5l0.15,0.05v-0.1l0.25,0.65l1.75,9.25v0.15
				c-0.002-0.069-0.052-0.152-0.15-0.25v0.3c-0.133-0.2-0.45-0.317-0.95-0.35c-0.1-0.133-0.267-0.2-0.5-0.2
				c-0.133-0.1-0.467-0.15-1-0.15c-0.333,0-0.633,0.05-0.9,0.15c-0.163,0.098-0.246,0.198-0.25,0.3v-0.2l-0.25,0.4L462.2,47.5
				 M466.25,46.3v-0.2c0.067,0.933,0.183,1.8,0.35,2.6v0.25l0.1,0.15l0.4,1.45c0.567,1.633,0.85,2.817,0.85,3.55l-0.1-0.1v0.1
				l-0.1-0.1c-0.2-0.1-0.7,0.067-1.5,0.5c-0.767,0.633-1.233,0.95-1.4,0.95l-0.5-0.5l1.1-5C465.683,48.35,465.95,47.133,466.25,46.3
				z"/>
			<path fill="#175A2C" fill-opacity="0.5451" d="M466.25,46.1v0.2c-0.3,0.833-0.567,2.05-0.8,3.65l-1.1,5l0.5,0.5
				c0.167,0,0.633-0.317,1.4-0.95c0.8-0.433,1.3-0.6,1.5-0.5l0.1,0.1V54v-0.15c-0.033-0.9-0.317-2-0.85-3.3l-0.3-1.45l-0.1-0.15
				V48.7C466.433,47.9,466.317,47.033,466.25,46.1z"/>
			<path fill="#418540" fill-opacity="0.5451" d="M462.35,47.55l-0.15-0.05l-1.85,10l0.25-0.4v0.2c0.004-0.102,0.087-0.202,0.25-0.3
				c0.267-0.1,0.567-0.15,0.9-0.15c0.533,0,0.867,0.05,1,0.15c0.233,0,0.4,0.067,0.5,0.2c0.5,0.033,0.817,0.15,0.95,0.35v-0.3
				c0.098,0.098,0.148,0.181,0.15,0.25v-0.15l-1.75-9.25l-0.25-0.65V47.55z"/>
			<path fill="#2C6F40" fill-opacity="0.5451" d="M214.9,61.25l-0.85-1.55c0,0.267-0.1,0.367-0.3,0.3l-1.15,2.45
				c-0.8,2.033-1.217,3.167-1.25,3.4c-1.2,3.167-1.95,4.867-2.25,5.1h0.2l-0.2,0.25l6.45,0.4l2.55-0.4v-0.25l-1.7-5.75
				C216.067,63.933,215.567,62.617,214.9,61.25 M224.25,61.2l-0.15,0.05c-0.833,1.233-1.583,2.717-2.25,4.45l-0.3,0.65
				c-0.367,0.833-0.85,2.083-1.45,3.75h0.05l-0.05,0.1h0.25l1.55-0.45c1.267-0.267,3.217-0.4,5.85-0.4c0.3,0,0.583,0.083,0.85,0.25
				l-0.05-0.15h0.05l-1-1.25L224.25,61.2z"/>
			<path fill="#145328" fill-opacity="0.5451" d="M390,87.1c0,0.767,0.083,1.517,0.25,2.25l0.2,1.85l-0.1,0.4
				c-0.167,0.433-0.25,0.85-0.25,1.25v0.1c0,0.5,0.083,0.883,0.25,1.15l0.1,0.35l0.3,0.5l0.1,0.15c-0.2,0.933-0.067,2.05,0.4,3.35
				c0.3,1.2,0.633,1.917,1,2.15c0.167,0.1,0.333,0.15,0.5,0.15c0.367,0,0.617-0.133,0.75-0.4l0.5-0.25l0.1,0.1
				c0.1,0.167,0.217,0.25,0.35,0.25l0.15,0.15c0.3,0,0.583-0.167,0.85-0.5l0.4-0.4l0.25,0.65c0.033,0.4,0.167,0.65,0.4,0.75
				c0.033,0.1,0.117,0.15,0.25,0.15v1h0.2v8.95H397l0.6,0.3l0.25,0.35l0.15-6.65l0.1-0.5v-2.25h0.35l0.05-1.35l0.2,0.1l0.15,0.05
				c0.3,0,0.55-0.183,0.75-0.55l0.15-0.1L400,100c0.1,0.3,0.267,0.5,0.5,0.6l0.35,0.1h0.25c0.567,0,1.033-0.283,1.4-0.85
				c0.367-0.367,0.6-0.783,0.7-1.25c0.367-0.533,0.55-1.233,0.55-2.1l-0.05-0.55c0.267-0.367,0.45-0.683,0.55-0.95v-0.05l0.45-0.85
				l-0.1-0.5c0.267-0.867,0.4-1.783,0.4-2.75c-0.133,1.067-0.267,1.85-0.4,2.35l-0.1,0.75l-0.05,0.25l-0.1,0.3v-0.15l-0.1-1.25
				L404,94.6l-0.15-1c0-0.9-0.117-1.483-0.35-1.75c-0.1,0.133-0.2,0.467-0.3,1c-0.4,1.267-0.85,1.967-1.35,2.1h-0.1L401.5,95
				l-0.3-0.05L401,94.1c-0.6,1.167-0.95,1.95-1.05,2.35c-0.167,0.267-0.317,0.45-0.45,0.55l-0.15-0.05c0,0.1-0.083,0.15-0.25,0.15
				l-0.15-0.1c-0.2-0.067-0.367-0.567-0.5-1.5L398,93.2v-0.1l-0.15-0.75c0-0.5-0.133-0.883-0.4-1.15l-0.2-0.1l-0.15,0.1
				c-0.6,0.633-1.017,1.683-1.25,3.15c-0.233,0.833-0.4,1.25-0.5,1.25c-0.033,0.1-0.117,0.1-0.25,0l-0.15,0.1
				c-0.1,0.1-0.267-0.017-0.5-0.35V95.2c-0.2,1-0.433,1.583-0.7,1.75h-0.25L393.35,97c-0.233,0.1-0.433,0-0.6-0.3
				c-0.5-0.533-1-1.483-1.5-2.85V93.6L391,93.85v-0.4l-0.4,0.5l-0.15-1.25c0-0.5,0.05-0.95,0.15-1.35l0.15-0.5l-0.5-4.15l0.1-1.95
				C390.117,85.35,390,86.133,390,87.1z"/>
			<path fill="#306F40" fill-opacity="0.5451" d="M401.7,78.85l-0.35,0.1c-0.233,0.133-0.433,0.4-0.6,0.8l-0.25,0.35
				c-0.233,0.233-0.4,0.35-0.5,0.35l-0.05-1l-0.45-1.6l-0.9-2.25c-0.2-0.433-0.567-0.65-1.1-0.65c-0.167,0-0.417,0.183-0.75,0.55
				l-1.65,1.75l-0.35-0.05c-0.167,0-0.467,0.083-0.9,0.25l-0.6,0.75c-0.467,0.467-0.9,1.233-1.3,2.3c-0.333,0.767-0.5,1.5-0.5,2.2
				V83c-0.367,0.1-0.683,0.383-0.95,0.85c-0.367,0.467-0.55,1.5-0.55,3.1c0,0.8,0.05,1.567,0.15,2.3l0.25,1.85l-0.1,0.35
				c-0.167,0.567-0.25,1.033-0.25,1.4c0,0.5,0.083,0.883,0.25,1.15l0.1,0.35l0.4,0.6l-0.3-0.5l-0.1-0.35
				c-0.167-0.267-0.25-0.65-0.25-1.15v-0.1c0-0.4,0.083-0.817,0.25-1.25l0.1-0.4l-0.2-1.85c-0.167-0.733-0.25-1.483-0.25-2.25
				c0-0.967,0.117-1.75,0.35-2.35l-0.1,1.95l0.5,4.15l-0.15,0.5c-0.1,0.4-0.15,0.85-0.15,1.35l0.15,1.25l0.4-0.5v0.4l0.25-0.25v0.25
				c0.5,1.367,1,2.317,1.5,2.85c0.167,0.3,0.367,0.4,0.6,0.3l0.15-0.05h0.25c0.267-0.167,0.5-0.75,0.7-1.75v0.15
				c0.233,0.333,0.4,0.45,0.5,0.35l0.15-0.1c0.133,0.1,0.217,0.1,0.25,0c0.1,0,0.267-0.417,0.5-1.25
				c0.233-1.467,0.65-2.517,1.25-3.15l0.15-0.1l0.2,0.1c0.267,0.267,0.4,0.65,0.4,1.15L398,93.1v0.1l0.45,2.3
				c0.133,0.933,0.3,1.433,0.5,1.5l0.15,0.1c0.167,0,0.25-0.05,0.25-0.15L399.5,97c0.133-0.1,0.283-0.283,0.45-0.55
				c0.1-0.4,0.45-1.183,1.05-2.35l0.2,0.85l0.3,0.05l0.25-0.05h0.1c0.5-0.133,0.95-0.833,1.35-2.1c0.1-0.533,0.2-0.867,0.3-1
				c0.233,0.267,0.35,0.85,0.35,1.75l0.15,1l0.25-1.5l0.1,1.25l0.1-0.15l0.05-0.25l-0.15-0.45c0.333-1,0.5-2.467,0.5-4.4v-0.5
				c0-1.633-0.167-2.8-0.5-3.5l-0.85-0.9V83C403.5,80.233,402.9,78.85,401.7,78.85z"/>
			<path fill="#A0B9D2" fill-opacity="0.5451" d="M392,46.25h-0.05H296.5c0,0.2-0.1,0.6-0.3,1.2c-0.533-0.267-1.067-0.417-1.6-0.45
				c-1.433,0.067-2.767,0.317-4,0.75c-0.233,0.1-0.4,0.117-0.5,0.05l-1.5-0.6c-0.5-0.333-0.867-0.633-1.1-0.9l0.2-0.2H153.4
				l-46.75,0.35l4.5,0.5V47l38.6,5h0.05l0.1,0.05l2.7,1.7c0.2,0.167,0.417,0.383,0.65,0.65c0.6,0.567,1.067,1.183,1.4,1.85l0.2,0.5
				c0.167,0.4,0.25,0.9,0.25,1.5c0,0.033,0,0.067,0,0.1c0,1.767-1.167,3.4-3.5,4.9c-0.7,0.467-1.2,0.867-1.5,1.2
				c-1.4,1.3-2.1,2.733-2.1,4.3v0.1l0.25,1.9c0.4,2.067,1.65,3.817,3.75,5.25c2.733,2.233,4.1,3.933,4.1,5.1v0.1
				c-0.067,1.033-0.967,2.2-2.7,3.5h0.25l21.15-4.3l-2.25-2.4c-3.767-4.033-5.65-6.667-5.65-7.9c0-0.533,0.667-1.317,2-2.35l1.5-0.9
				c0.6-0.367,1.1-0.75,1.5-1.15c1.667-1.333,2.5-2.95,2.5-4.85c0-1.867-1.05-3.8-3.15-5.8l16.8,1.65c1.9,0.267,4.333,0.533,7.3,0.8
				l8.4,0.75h0.15l20.35,1.5h0.1c13.2,0.967,32.783,2.033,58.75,3.2l50.75,0.5v-0.7h0.1c15.167-4.267,29.183-8.283,42.05-12.05
				L392,46.25z"/>
			<path fill="#A3C098" d="M56.25,66c-0.033-0.333-0.033-0.55,0-0.65L55.5,64.2c0.133,0.5,0.367,1.833,0.7,4l0.05,0.15v0.25
				l0.15,0.25V66.7C56.3,66.5,56.25,66.267,56.25,66 M50.45,46.8l-0.95,1.7l0.05,0.05l0.1,0.2l0.15,1.5l1.15,2.95v0.05h-1l-0.2,0.1
				c-0.4,0.2-0.65,0.433-0.75,0.7v0.25c-0.067,0.433,0.317,1.5,1.15,3.2l1.9,2.85c0.9,0.7,1.683,1.45,2.35,2.25v-0.15l0.1,0.35
				l1,1.4l-0.8-1.25l-0.15-0.45v-0.25L54.7,62l1.2,1.25l0.1,0.2l0.2,0.05L56,63.3l0.75,0.3l-0.25,0.35v0.15l0.05,0.1
				c0,0.167,0.05,0.267,0.15,0.3v-0.3l0.05,0.15l0.15,0.15l0.05-0.4L57,64.2V64l0.3-1.7l0.25-0.3h0.15l0.05,2.1l0.15-0.15v0.15
				l0.35-0.6v-0.05l0.15-0.2l0.05-0.05l0.1-0.4l0.15-0.1h0.05c0-0.167,0.083-0.25,0.25-0.25l0.2-0.15c0,0.6-0.267,1.483-0.8,2.65
				h-0.15V65l-0.05,0.2v0.25l-0.3,0.4L57.75,66v0.1l0.15,0.25V66.2L58,66l0.25-0.4c0-0.1,0.05-0.15,0.15-0.15
				c0-0.167,0.033-0.25,0.1-0.25l1.75-3c1.8-2.9,2.883-5.267,3.25-7.1l-1.75-0.35h-0.2l0.2-0.5c1.333-3.567,2-5.567,2-6V48.1
				l-0.35-0.85h-1.2c-0.567,0.167-0.95,0.25-1.15,0.25c-0.2,0-0.367-0.467-0.5-1.4l-0.15-3.55l0.05,0.05
				c-0.8-2.867-1.617-4.3-2.45-4.3c-1.433-0.067-2.683,0.733-3.75,2.4c-0.333,0.533-0.5,0.917-0.5,1.15l-0.05,0.1
				c-0.067,0.167-0.133,0.533-0.2,1.1c-0.3,0.967-0.617,1.733-0.95,2.3L52,46.45c0,0.1-0.033,0.15-0.1,0.15
				c-0.133,0.1-0.367,0.15-0.7,0.15c-0.267-0.1-0.45-0.1-0.55,0L50.45,46.8z"/>
			<path fill="#578B47" fill-opacity="0.5451" d="M56.5,64.1v-0.15l0.25-0.35L56,63.3l0.2,0.2l0.2,0.1v0.35L56.5,64.1z"/>
			<path fill="#387639" fill-opacity="0.5451" d="M58.55,62.8l-0.1,0.4l-0.05,0.05l-0.15,0.2v0.05l-0.35,0.6v-0.15l-0.15,0.15
				L57.7,62h-0.15l-0.25,0.3L57,64v0.2l-0.05-0.1l-0.05,0.4l-0.15-0.15L56.7,64.2v0.3c-0.1-0.033-0.15-0.133-0.15-0.3l-0.05-0.1
				l-0.1-0.15V63.6l-0.2-0.1L56,63.45l-0.1-0.2L54.7,62l-0.15,0.25v0.25l0.15,0.45l0.8,1.25l0.75,1.15
				c-0.033,0.1-0.033,0.317,0,0.65c0,0.267,0.05,0.5,0.15,0.7v2.15l-0.15-0.25v-0.25L56.2,68.2v0.55l-0.15-0.3v-0.2l-0.15-0.4
				l-0.7-0.5l0.05,1.1l0.5,2l0.45,1.15l0.2,0.35l-0.15,3.9h0.15l1,0.5l0.6,0.6l0.2,0.15v-0.15L58.25,77v-4.9h0.15v-0.15
				c0.2,0,0.333-0.033,0.4-0.1c0.267-0.333,0.417-0.75,0.45-1.25l0.3-2.35l0.2-0.4l-1.5,1.35l-0.05-1.6L58,66.5l-0.1-0.15
				l-0.15-0.25V66l0.15-0.15l0.3-0.4V65.2l0.05-0.2v-0.05h0.15c0.533-1.167,0.8-2.05,0.8-2.65L59,62.45
				c-0.167,0-0.25,0.083-0.25,0.25H58.7L58.55,62.8z"/>
			<path fill="#6FC361" fill-opacity="0.5451" d="M75.4,42.2c-0.933-1.667-1.433-2.5-1.5-2.5l-0.35,0.65l-0.9,3.1l-0.1,0.25
				l3.6,0.15L76.4,44L75.4,42.2 M66.25,43.05l-0.2,0.2L70,43.5h0.05v-0.25l-0.5-1.05c-0.5-2.1-0.833-3.15-1-3.15l-0.4,0.5
				L66.25,43.05 M41.25,41.7v-0.15L41.2,40.2l-1.5-2.45c-0.9-1.533-1.4-2.3-1.5-2.3L37,38.3c-0.533,1.8-0.95,2.817-1.25,3.05v0.1
				l-0.2,0.25H41.25z"/>
			<path fill="#ACD1A4" d="M152.35,53.7c0.333,0.233,0.633,0.467,0.9,0.7c-0.233-0.267-0.45-0.483-0.65-0.65l-2.7-1.7h-0.05
				L152.35,53.7z"/>
			<path fill="#4F904F" fill-opacity="0.5451" d="M181.05,37.75c-0.233,0.333-0.567,0.617-1,0.85l-0.15,0.1h0.35l13-3.2L190.6,33
				c-1.8-1.633-2.7-2.5-2.7-2.6h-0.3v0.1l-0.2,0.15l-4.5,4.95C182.1,36.433,181.483,37.15,181.05,37.75 M172.8,34.5l-0.2,0.1
				l-4.55,4.95c-1.6,1.9-2.583,2.967-2.95,3.2h0.25h0.05c0.467,0,1.917-0.25,4.35-0.75h0.1l8.65-2.5l-4.9-4.5L172.8,34.5z"/>
			<path fill="#96C77E" fill-opacity="0.5451" d="M250.6,20.5c-0.233-0.433-1.817-1.017-4.75-1.75c-3.1-0.9-6.017-1.35-8.75-1.35
				c-1.033,0-2.567,0.467-4.6,1.4l-2.65,1.45c-1.333-0.3-2.65-0.45-3.95-0.45c-2.2,0-4.15,0.75-5.85,2.25
				c-0.467,0.5-1.35,1.567-2.65,3.2c-0.233-0.233-0.517-0.3-0.85-0.2c-1.233,0-2.45,0.45-3.65,1.35c-1.233,1-1.85,1.95-1.85,2.85
				c0,0.567,0.25,1.15,0.75,1.75h0.3c13.133-3.1,28.85-6.333,47.15-9.7c-0.4-0.233-0.7-0.367-0.9-0.4
				c-1.533-0.933-2.967-1.4-4.3-1.4c-0.733-0.167-1.5-0.083-2.3,0.25L250.6,20.5z"/>
			<path fill="#52904F" fill-opacity="0.5451" d="M289.6,44.55c-0.9,0.467-1.533,0.983-1.9,1.55l-0.2,0.2
				c0.233,0.267,0.6,0.567,1.1,0.9l1.5,0.6c0.1,0.067,0.267,0.05,0.5-0.05c1.233-0.433,2.567-0.683,4-0.75
				c0.533,0.033,1.067,0.183,1.6,0.45c0.2-0.6,0.3-1,0.3-1.2c0-0.033-0.05-0.3-0.15-0.8c-0.467-1.233-1.333-1.967-2.6-2.2h-0.55
				c-0.633,0-1.2,0.083-1.7,0.25l-1.65,0.55C289.95,44.317,289.867,44.483,289.6,44.55 M296,10.4l-0.15,0.5l-0.1-0.25
				c-0.167-0.9-0.433-1.583-0.8-2.05c-0.4-0.467-0.967-0.833-1.7-1.1c-0.5-0.2-1.05-0.3-1.65-0.3c-1.1,0-1.9,0.567-2.4,1.7
				c-0.2,0.467-0.35,1.3-0.45,2.5l-0.15-0.2c0-0.067-0.117-0.15-0.35-0.25l-0.55-0.05c-1.067,0-1.85,0.583-2.35,1.75
				c-0.3,0.833-0.55,1.867-0.75,3.1l-0.5-0.25l-0.25-0.05c-0.3,0-0.583,0.65-0.85,1.95v0.1l-0.5,2.05c0,0.567,0.083,1.017,0.25,1.35
				l0.5,0.5c-0.167,0.233-0.333,0.6-0.5,1.1l-0.25,1.4v1c0,1.133,0.15,2,0.45,2.6c0.133,0.533,0.317,1.033,0.55,1.5
				c0.167,0.167,0.367,0.217,0.6,0.15c0.167-0.033,0.283-0.117,0.35-0.25l-0.1,0.9l-0.1-0.05v0.15c-0.1,0.533-0.1,0.867,0,1
				c0-0.133,0.167-0.267,0.5-0.4c0.133-0.067,0.383-0.1,0.75-0.1c0.4,0,0.933-0.283,1.6-0.85l0.5-0.55l0.25-0.5l0.15,0.25l0.1-0.2
				l0.15,0.35c0.6,1.633,1.467,2.683,2.6,3.15V31.9h0.1l-0.1-3.25l-0.15,0.1v-0.1c-0.133,0.067-0.283,0.1-0.45,0.1h-0.4L289.1,28
				l-0.1-0.25c-0.267-0.4-0.433-0.733-0.5-1h0.1v-0.1h0.9l0.35,0.35l0.65,0.4l0.1,0.1v-0.1l-0.1-0.9l0.45-5.1v-0.1H291l-0.05-0.15
				l0.05,0.1l0.5,0.3l0.75,6.85l0.25-0.25v0.15l0.1-0.15v0.25l1.35-1.5v-0.1h0.4v2.45c-0.233,0.3-0.483,0.567-0.75,0.8l-1.1,1.1
				v0.35l-0.25,0.15v0.85c0.333,0,0.7-0.15,1.1-0.45L293.5,32c0.667-0.4,1.283-1.017,1.85-1.85c0.467-0.533,0.85-1.083,1.15-1.65
				l0.25-0.25c0.133-0.233,0.3-0.35,0.5-0.35V28l0.5-0.1c0.233,0.833,0.567,1.383,1,1.65c0.267-0.1,0.517-0.367,0.75-0.8l0.45-0.7
				L300,28v-0.25l0.1-0.2l0.6-0.65h0.55l0.25-0.25l0.35,0.6l0.25-0.45l0.15-3.5c0-1.1-0.167-1.933-0.5-2.5
				c-0.067-0.233-0.2-0.367-0.4-0.4l0.1-0.25c0.433-1,0.65-1.717,0.65-2.15v-0.1l-0.1-0.65v-0.2l-0.15-0.55l-1-1.4
				c-0.133-0.2-0.417-0.433-0.85-0.7l-0.5-0.45l-0.25-0.05v-0.2c0-0.8-0.267-1.633-0.8-2.5c-0.5-0.667-0.983-1.067-1.45-1.2
				l-0.55-0.1v0.05L296,10.4z"/>
			<path fill="#346E39" fill-opacity="0.5451" d="M291,21.3h-0.05v0.1l-0.45,5.1l0.1,0.9v0.1l-0.1-0.1l-0.65-0.4l-0.35-0.35h-0.9
				v0.1h-0.1c0.067,0.267,0.233,0.6,0.5,1l0.1,0.25l0.75,0.75h0.4c0.167,0,0.317-0.033,0.45-0.1v0.1l0.15-0.1l0.1,3.25h-0.1v0.15
				c-1.133-0.467-2-1.517-2.6-3.15l-0.15-0.35l-0.1,0.2l-0.15-0.25L287.6,29l-0.5,0.55c-0.667,0.567-1.2,0.85-1.6,0.85
				c-0.367,0-0.617,0.033-0.75,0.1c-0.333,0.133-0.5,0.267-0.5,0.4V31l0.1,0.5c0.067,0.567,0.183,0.933,0.35,1.1
				c0.367,0.6,0.883,0.9,1.55,0.9c0.733,0,1.6-0.75,2.6-2.25v0.3l-0.1,0.45c0.1,1.067,0.517,1.6,1.25,1.6
				c0.433,0,0.833-0.283,1.2-0.85l0.05-0.15l0.1,0.2V33l0.15,0.1v10.4c0.5-0.167,1.067-0.25,1.7-0.25V33l0.9-0.5v-0.15l0.1-0.1
				l0.05-0.2c0.233-0.167,0.383-0.333,0.45-0.5l0.55,0.95c0.633,0.633,1.3,0.95,2,0.95c0.667,0,1.417-0.567,2.25-1.7L300,31
				l1.1-3.25l0.75-0.5l-0.35-0.6l-0.25,0.25h-0.55l-0.6,0.65l-0.1,0.2V28l-0.05,0.05l-0.45,0.7c-0.233,0.433-0.483,0.7-0.75,0.8
				c-0.433-0.267-0.767-0.817-1-1.65l-0.5,0.1v-0.1c-0.2,0-0.367,0.117-0.5,0.35l-0.25,0.25c-0.3,0.567-0.683,1.117-1.15,1.65
				c-0.567,0.833-1.183,1.45-1.85,1.85l-0.15,0.05c-0.4,0.3-0.767,0.45-1.1,0.45v-0.85l0.25-0.15v-0.35l1.1-1.1
				c0.267-0.233,0.517-0.5,0.75-0.8V26.8h-0.4v0.1l-1.35,1.5v-0.25l-0.1,0.15v-0.15l-0.25,0.25l-0.75-6.85l-0.5-0.3l-0.05-0.1
				L291,21.3z"/>
			<path fill="#79B961" fill-opacity="0.5451" d="M313.75,6c-0.933,1.967-2.483,4.333-4.65,7.1l-0.1,0.05l8.75-1.25l-0.05-0.15
				C315.233,8.283,314,6.367,314,6H313.75 M336.35,8.15c-2.333-3.633-3.5-5.517-3.5-5.65h-0.25c-1.267,2.467-3.183,5.183-5.75,8.15
				l0.9-0.05l0.35-0.15l9-1.2v-0.1L336.35,8.15z"/>
			<path fill="#478A46" fill-opacity="0.5451" d="M473.35,36.8h-0.1c-0.133,0.367-0.267,0.6-0.4,0.7l-0.1,0.1h0.35v0.15h0.35
				l-0.2,0.35c0,0.067-0.083,0.217-0.25,0.45l-0.4,0.8c-0.267,0.433-0.483,0.65-0.65,0.65l0.05,4.05l0.25-0.05
				c1.133-0.467,2.05-1.133,2.75-2c0.633-0.733,1.117-1.65,1.45-2.75l0.05-0.55v-0.15l-0.05,0.5l-0.5-1.55H475
				c-0.133,0.2-0.35,0.3-0.65,0.3c-0.133,0.033-0.3,0.017-0.5-0.05L473.35,36.8 M469.35,35.95l-0.25,0.35
				c-0.5,1.167-1,1.717-1.5,1.65l-0.4-0.1h-0.45c-0.233,0.1-0.45,0.067-0.65-0.1l1.25,2.6c1.2,2.567,2.233,4.033,3.1,4.4h0.05v-3.9
				l-0.9-1.8h0.25V39l0.1-0.7L470,39h0.1c0,0.133,0.05,0.217,0.15,0.25l0.25,0.3l0.1-1.45l-0.25-0.1v0.45
				c-0.267-0.2-0.55-0.483-0.85-0.85L469.35,35.95z"/>
			<path fill="#326E3F" fill-opacity="0.5451" d="M470.95,36.3l-0.1,0.15l-0.1,1.8l-0.15-0.15l-0.1,1.45l-0.25-0.3
				c-0.1-0.033-0.15-0.117-0.15-0.25H470l-0.05-0.7l-0.1,0.7v0.05h-0.25l0.9,1.8v3.9h0.1v3.85c0.167,2.167,0.167,3.383,0,3.65
				l0.25,0.1l0.6,0.15h0.05l0.45-0.15l-0.1-8.15l0.15-0.1v-0.05L471.95,40c0.167,0,0.383-0.217,0.65-0.65l0.4-0.8
				c0.167-0.233,0.25-0.383,0.25-0.45l0.2-0.35h-0.35h-0.35c-0.2,0-0.467,0.083-0.8,0.25h-0.1v-1.7H470.95z"/>
		</g>
	</g>
</g>
</svg>